<mxfile host="Electron" modified="2024-02-13T01:16:17.930Z" agent="Mozilla/5.0 (Windows NT 10.0; Win64; x64) AppleWebKit/537.36 (KHTML, like Gecko) draw.io/22.0.3 Chrome/114.0.5735.289 Electron/25.8.4 Safari/537.36" etag="Kcp-6bg7CrspmBIb95y9" version="22.0.3" type="device" pages="4">
  <diagram name="LANDING-PAGE" id="Nr3Ehv-caPOXDTijbt3f">
    <mxGraphModel dx="1050" dy="669" grid="1" gridSize="10" guides="1" tooltips="1" connect="1" arrows="1" fold="1" page="1" pageScale="1" pageWidth="1100" pageHeight="850" math="0" shadow="0">
      <root>
        <mxCell id="0" />
        <mxCell id="1" parent="0" />
        <mxCell id="DXqUMUrZajfqnLpeqgvd-1" value="" style="rounded=0;whiteSpace=wrap;html=1;" parent="1" vertex="1">
          <mxGeometry x="160" y="170" width="640" height="320" as="geometry" />
        </mxCell>
        <mxCell id="DXqUMUrZajfqnLpeqgvd-2" value="LOGO" style="text;html=1;strokeColor=none;fillColor=none;align=center;verticalAlign=middle;whiteSpace=wrap;rounded=0;" parent="1" vertex="1">
          <mxGeometry x="170" y="180" width="40" height="20" as="geometry" />
        </mxCell>
        <mxCell id="DXqUMUrZajfqnLpeqgvd-3" value="Skills" style="text;html=1;strokeColor=none;fillColor=none;align=center;verticalAlign=middle;whiteSpace=wrap;rounded=0;" parent="1" vertex="1">
          <mxGeometry x="476" y="180" width="60" height="30" as="geometry" />
        </mxCell>
        <mxCell id="DXqUMUrZajfqnLpeqgvd-4" value="Expiriens" style="text;html=1;strokeColor=none;fillColor=none;align=center;verticalAlign=middle;whiteSpace=wrap;rounded=0;" parent="1" vertex="1">
          <mxGeometry x="536" y="180" width="60" height="30" as="geometry" />
        </mxCell>
        <mxCell id="DXqUMUrZajfqnLpeqgvd-5" value="Achivment" style="text;html=1;strokeColor=none;fillColor=none;align=center;verticalAlign=middle;whiteSpace=wrap;rounded=0;" parent="1" vertex="1">
          <mxGeometry x="596" y="180" width="60" height="30" as="geometry" />
        </mxCell>
        <mxCell id="DXqUMUrZajfqnLpeqgvd-6" value="Contuct me" style="text;html=1;strokeColor=none;fillColor=none;align=center;verticalAlign=middle;whiteSpace=wrap;rounded=0;" parent="1" vertex="1">
          <mxGeometry x="656" y="180" width="70" height="30" as="geometry" />
        </mxCell>
        <mxCell id="DXqUMUrZajfqnLpeqgvd-7" value="&lt;font face=&quot;Comic Sans MS&quot;&gt;&lt;b&gt;Hi all , Iam Abdelrhman&amp;nbsp;&lt;/b&gt;&lt;/font&gt;" style="text;html=1;strokeColor=none;fillColor=none;align=center;verticalAlign=middle;whiteSpace=wrap;rounded=0;" parent="1" vertex="1">
          <mxGeometry x="210" y="270" width="150" height="30" as="geometry" />
        </mxCell>
        <mxCell id="DXqUMUrZajfqnLpeqgvd-8" value="Education" style="text;html=1;strokeColor=none;fillColor=none;align=center;verticalAlign=middle;whiteSpace=wrap;rounded=0;" parent="1" vertex="1">
          <mxGeometry x="726" y="180" width="70" height="30" as="geometry" />
        </mxCell>
        <mxCell id="DXqUMUrZajfqnLpeqgvd-9" value="&lt;font color=&quot;#a79595&quot; face=&quot;Tahoma&quot;&gt;A passionate Frontend developer ðŸš€ with experience in creating websites, many web applications, and a few desktop applications using HTML / CSS / JAVA SCRIPT / JAVA / SQL / ORACLE APEX, and also a few personal skills, such as the ease of adapting to the work environment and completing projects with a work team.&lt;/font&gt;" style="text;html=1;strokeColor=none;fillColor=none;align=center;verticalAlign=middle;whiteSpace=wrap;rounded=0;" parent="1" vertex="1">
          <mxGeometry x="180" y="310" width="430" height="80" as="geometry" />
        </mxCell>
        <mxCell id="DXqUMUrZajfqnLpeqgvd-10" value="" style="rounded=0;whiteSpace=wrap;html=1;" parent="1" vertex="1">
          <mxGeometry x="631" y="280" width="120" height="120" as="geometry" />
        </mxCell>
        <mxCell id="DXqUMUrZajfqnLpeqgvd-11" value="&lt;font style=&quot;font-size: 15px;&quot;&gt;PHOTO&lt;/font&gt;" style="text;html=1;strokeColor=none;fillColor=none;align=center;verticalAlign=middle;whiteSpace=wrap;rounded=0;" parent="1" vertex="1">
          <mxGeometry x="651" y="315" width="80" height="30" as="geometry" />
        </mxCell>
        <mxCell id="DXqUMUrZajfqnLpeqgvd-12" value="&lt;font style=&quot;font-size: 10px;&quot;&gt;FACEBOOK&lt;/font&gt;" style="ellipse;whiteSpace=wrap;html=1;fillColor=#dae8fc;strokeColor=#6c8ebf;" parent="1" vertex="1">
          <mxGeometry x="220" y="410" width="70" height="40" as="geometry" />
        </mxCell>
        <mxCell id="DXqUMUrZajfqnLpeqgvd-13" value="&lt;font style=&quot;font-size: 10px;&quot;&gt;INSTGRAM&lt;/font&gt;" style="ellipse;whiteSpace=wrap;html=1;fillColor=#fff2cc;strokeColor=#d6b656;" parent="1" vertex="1">
          <mxGeometry x="300" y="410" width="70" height="40" as="geometry" />
        </mxCell>
        <mxCell id="DXqUMUrZajfqnLpeqgvd-14" value="&lt;font style=&quot;font-size: 10px;&quot;&gt;LINKEDIN&lt;/font&gt;" style="ellipse;whiteSpace=wrap;html=1;fillColor=#1ba1e2;fontColor=#ffffff;strokeColor=#006EAF;" parent="1" vertex="1">
          <mxGeometry x="380" y="410" width="70" height="40" as="geometry" />
        </mxCell>
        <mxCell id="DXqUMUrZajfqnLpeqgvd-15" value="&lt;font style=&quot;font-size: 10px;&quot;&gt;WHATSAPP&lt;/font&gt;" style="ellipse;whiteSpace=wrap;html=1;fillColor=#60a917;fontColor=#ffffff;strokeColor=#2D7600;" parent="1" vertex="1">
          <mxGeometry x="460" y="410" width="70" height="40" as="geometry" />
        </mxCell>
        <mxCell id="DXqUMUrZajfqnLpeqgvd-32" value="&lt;font style=&quot;font-size: 10px;&quot;&gt;EMAIL&lt;/font&gt;" style="ellipse;whiteSpace=wrap;html=1;fillColor=#e3c800;fontColor=#000000;strokeColor=#B09500;" parent="1" vertex="1">
          <mxGeometry x="536" y="410" width="70" height="40" as="geometry" />
        </mxCell>
        <mxCell id="DXqUMUrZajfqnLpeqgvd-33" value="" style="rounded=0;whiteSpace=wrap;html=1;fillColor=#000045;" parent="1" vertex="1">
          <mxGeometry x="850" y="170" width="640" height="320" as="geometry" />
        </mxCell>
        <mxCell id="DXqUMUrZajfqnLpeqgvd-39" value="&lt;font color=&quot;#ffffff&quot; face=&quot;Comic Sans MS&quot;&gt;&lt;b&gt;Hi all , Iam Abdelrhman&amp;nbsp;&lt;/b&gt;&lt;/font&gt;" style="text;html=1;strokeColor=none;fillColor=none;align=center;verticalAlign=middle;whiteSpace=wrap;rounded=0;" parent="1" vertex="1">
          <mxGeometry x="900" y="270" width="150" height="30" as="geometry" />
        </mxCell>
        <mxCell id="DXqUMUrZajfqnLpeqgvd-41" value="&lt;font color=&quot;#ffffff&quot; face=&quot;Tahoma&quot;&gt;A passionate Frontend developer ðŸš€ with experience in creating websites, many web applications, and a few desktop applications using HTML / CSS / JAVA SCRIPT / JAVA / SQL / ORACLE APEX, and also a few personal skills, such as the ease of adapting to the work environment and completing projects with a work team.&lt;/font&gt;" style="text;html=1;strokeColor=none;fillColor=none;align=center;verticalAlign=middle;whiteSpace=wrap;rounded=0;" parent="1" vertex="1">
          <mxGeometry x="870" y="310" width="430" height="80" as="geometry" />
        </mxCell>
        <mxCell id="DXqUMUrZajfqnLpeqgvd-42" value="" style="rounded=0;whiteSpace=wrap;html=1;" parent="1" vertex="1">
          <mxGeometry x="1321" y="280" width="120" height="120" as="geometry" />
        </mxCell>
        <mxCell id="DXqUMUrZajfqnLpeqgvd-43" value="&lt;font style=&quot;font-size: 15px;&quot;&gt;PHOTO&lt;/font&gt;" style="text;html=1;strokeColor=none;fillColor=none;align=center;verticalAlign=middle;whiteSpace=wrap;rounded=0;" parent="1" vertex="1">
          <mxGeometry x="1341" y="315" width="80" height="30" as="geometry" />
        </mxCell>
        <mxCell id="DXqUMUrZajfqnLpeqgvd-44" value="&lt;font style=&quot;font-size: 10px;&quot;&gt;FACEBOOK&lt;/font&gt;" style="ellipse;whiteSpace=wrap;html=1;fillColor=#dae8fc;strokeColor=#6c8ebf;" parent="1" vertex="1">
          <mxGeometry x="910" y="410" width="70" height="40" as="geometry" />
        </mxCell>
        <mxCell id="DXqUMUrZajfqnLpeqgvd-45" value="&lt;font style=&quot;font-size: 10px;&quot;&gt;INSTGRAM&lt;/font&gt;" style="ellipse;whiteSpace=wrap;html=1;fillColor=#fff2cc;strokeColor=#d6b656;" parent="1" vertex="1">
          <mxGeometry x="990" y="410" width="70" height="40" as="geometry" />
        </mxCell>
        <mxCell id="DXqUMUrZajfqnLpeqgvd-46" value="&lt;font style=&quot;font-size: 10px;&quot;&gt;LINKEDIN&lt;/font&gt;" style="ellipse;whiteSpace=wrap;html=1;fillColor=#1ba1e2;fontColor=#ffffff;strokeColor=#006EAF;" parent="1" vertex="1">
          <mxGeometry x="1070" y="410" width="70" height="40" as="geometry" />
        </mxCell>
        <mxCell id="DXqUMUrZajfqnLpeqgvd-47" value="&lt;font style=&quot;font-size: 10px;&quot;&gt;WHATSAPP&lt;/font&gt;" style="ellipse;whiteSpace=wrap;html=1;fillColor=#60a917;fontColor=#ffffff;strokeColor=#2D7600;" parent="1" vertex="1">
          <mxGeometry x="1150" y="410" width="70" height="40" as="geometry" />
        </mxCell>
        <mxCell id="DXqUMUrZajfqnLpeqgvd-48" value="&lt;font style=&quot;font-size: 10px;&quot;&gt;EMAIL&lt;/font&gt;" style="ellipse;whiteSpace=wrap;html=1;fillColor=#e3c800;fontColor=#000000;strokeColor=#B09500;" parent="1" vertex="1">
          <mxGeometry x="1226" y="410" width="70" height="40" as="geometry" />
        </mxCell>
        <mxCell id="DXqUMUrZajfqnLpeqgvd-35" value="Skills" style="text;html=1;strokeColor=none;fillColor=none;align=center;verticalAlign=middle;whiteSpace=wrap;rounded=0;fontColor=#FFFFFF;" parent="1" vertex="1">
          <mxGeometry x="1156" y="175" width="60" height="30" as="geometry" />
        </mxCell>
        <mxCell id="DXqUMUrZajfqnLpeqgvd-34" value="&lt;font color=&quot;#ffffff&quot;&gt;LOGO&lt;/font&gt;" style="text;html=1;strokeColor=none;fillColor=none;align=center;verticalAlign=middle;whiteSpace=wrap;rounded=0;" parent="1" vertex="1">
          <mxGeometry x="850" y="175" width="40" height="20" as="geometry" />
        </mxCell>
        <mxCell id="DXqUMUrZajfqnLpeqgvd-36" value="Expiriens" style="text;html=1;strokeColor=none;fillColor=none;align=center;verticalAlign=middle;whiteSpace=wrap;rounded=0;fontColor=#FFFFFF;" parent="1" vertex="1">
          <mxGeometry x="1216" y="175" width="60" height="30" as="geometry" />
        </mxCell>
        <mxCell id="DXqUMUrZajfqnLpeqgvd-37" value="Achivment" style="text;html=1;strokeColor=none;fillColor=none;align=center;verticalAlign=middle;whiteSpace=wrap;rounded=0;fontColor=#FFFFFF;" parent="1" vertex="1">
          <mxGeometry x="1276" y="175" width="60" height="30" as="geometry" />
        </mxCell>
        <mxCell id="DXqUMUrZajfqnLpeqgvd-38" value="Contuct me" style="text;html=1;strokeColor=none;fillColor=none;align=center;verticalAlign=middle;whiteSpace=wrap;rounded=0;fontColor=#FFFFFF;" parent="1" vertex="1">
          <mxGeometry x="1336" y="175" width="70" height="30" as="geometry" />
        </mxCell>
        <mxCell id="DXqUMUrZajfqnLpeqgvd-40" value="Education" style="text;html=1;strokeColor=none;fillColor=none;align=center;verticalAlign=middle;whiteSpace=wrap;rounded=0;fontColor=#FFFFFF;" parent="1" vertex="1">
          <mxGeometry x="1406" y="175" width="70" height="30" as="geometry" />
        </mxCell>
      </root>
    </mxGraphModel>
  </diagram>
  <diagram id="RJqHcDw3qwZ-_uUqBEIJ" name="SKILLS">
    <mxGraphModel dx="1050" dy="669" grid="1" gridSize="10" guides="1" tooltips="1" connect="1" arrows="1" fold="1" page="1" pageScale="1" pageWidth="1100" pageHeight="850" math="0" shadow="0">
      <root>
        <mxCell id="0" />
        <mxCell id="1" parent="0" />
        <mxCell id="k4s-2LAbkQS7kkmhTAW6-2" value="" style="rounded=0;whiteSpace=wrap;html=1;" parent="1" vertex="1">
          <mxGeometry x="160" y="200" width="640" height="330" as="geometry" />
        </mxCell>
        <mxCell id="4fM5cwg48w1vnp1xPwAT-1" value="LOGO" style="text;html=1;strokeColor=none;fillColor=none;align=center;verticalAlign=middle;whiteSpace=wrap;rounded=0;" parent="1" vertex="1">
          <mxGeometry x="170" y="203" width="40" height="20" as="geometry" />
        </mxCell>
        <mxCell id="4fM5cwg48w1vnp1xPwAT-2" value="Skills" style="text;html=1;strokeColor=none;fillColor=none;align=center;verticalAlign=middle;whiteSpace=wrap;rounded=0;" parent="1" vertex="1">
          <mxGeometry x="476" y="203" width="60" height="30" as="geometry" />
        </mxCell>
        <mxCell id="4fM5cwg48w1vnp1xPwAT-3" value="Expiriens" style="text;html=1;strokeColor=none;fillColor=none;align=center;verticalAlign=middle;whiteSpace=wrap;rounded=0;" parent="1" vertex="1">
          <mxGeometry x="536" y="203" width="60" height="30" as="geometry" />
        </mxCell>
        <mxCell id="4fM5cwg48w1vnp1xPwAT-4" value="Achivment" style="text;html=1;strokeColor=none;fillColor=none;align=center;verticalAlign=middle;whiteSpace=wrap;rounded=0;" parent="1" vertex="1">
          <mxGeometry x="596" y="203" width="60" height="30" as="geometry" />
        </mxCell>
        <mxCell id="4fM5cwg48w1vnp1xPwAT-5" value="Contuct me" style="text;html=1;strokeColor=none;fillColor=none;align=center;verticalAlign=middle;whiteSpace=wrap;rounded=0;" parent="1" vertex="1">
          <mxGeometry x="656" y="203" width="70" height="30" as="geometry" />
        </mxCell>
        <mxCell id="4fM5cwg48w1vnp1xPwAT-6" value="Education" style="text;html=1;strokeColor=none;fillColor=none;align=center;verticalAlign=middle;whiteSpace=wrap;rounded=0;" parent="1" vertex="1">
          <mxGeometry x="726" y="203" width="70" height="30" as="geometry" />
        </mxCell>
        <mxCell id="4fM5cwg48w1vnp1xPwAT-7" value="" style="rounded=0;whiteSpace=wrap;html=1;" parent="1" vertex="1">
          <mxGeometry x="170" y="270" width="120" height="90" as="geometry" />
        </mxCell>
        <mxCell id="4fM5cwg48w1vnp1xPwAT-8" value="PHOTO" style="text;html=1;strokeColor=none;fillColor=none;align=center;verticalAlign=middle;whiteSpace=wrap;rounded=0;" parent="1" vertex="1">
          <mxGeometry x="200" y="285" width="60" height="60" as="geometry" />
        </mxCell>
        <mxCell id="4fM5cwg48w1vnp1xPwAT-9" value="&lt;font style=&quot;font-size: 14px;&quot; face=&quot;Verdana&quot;&gt;What I Do?&lt;/font&gt;" style="text;html=1;strokeColor=none;fillColor=none;align=center;verticalAlign=middle;whiteSpace=wrap;rounded=0;" parent="1" vertex="1">
          <mxGeometry x="422" y="280" width="94" height="30" as="geometry" />
        </mxCell>
        <mxCell id="4fM5cwg48w1vnp1xPwAT-10" value="&lt;font face=&quot;Tahoma&quot;&gt;CRAZY FROUNT END DEVELOPER WHO WANTS TO EXPLORE EVERY TECH STACK&lt;/font&gt;" style="text;html=1;strokeColor=none;fillColor=none;align=center;verticalAlign=middle;whiteSpace=wrap;rounded=0;" parent="1" vertex="1">
          <mxGeometry x="416" y="310" width="364" height="30" as="geometry" />
        </mxCell>
        <mxCell id="4fM5cwg48w1vnp1xPwAT-11" value="HTML ICON" style="rounded=0;whiteSpace=wrap;html=1;" parent="1" vertex="1">
          <mxGeometry x="429" y="350" width="80" height="30" as="geometry" />
        </mxCell>
        <mxCell id="4fM5cwg48w1vnp1xPwAT-12" value="CSS ICON" style="rounded=0;whiteSpace=wrap;html=1;" parent="1" vertex="1">
          <mxGeometry x="516" y="350" width="80" height="30" as="geometry" />
        </mxCell>
        <mxCell id="4fM5cwg48w1vnp1xPwAT-13" value="JS ICON" style="rounded=0;whiteSpace=wrap;html=1;" parent="1" vertex="1">
          <mxGeometry x="610" y="350" width="80" height="30" as="geometry" />
        </mxCell>
        <mxCell id="4fM5cwg48w1vnp1xPwAT-14" value="JAVA ICON" style="rounded=0;whiteSpace=wrap;html=1;" parent="1" vertex="1">
          <mxGeometry x="700" y="350" width="80" height="30" as="geometry" />
        </mxCell>
        <mxCell id="4fM5cwg48w1vnp1xPwAT-15" value="SQL ICON" style="rounded=0;whiteSpace=wrap;html=1;" parent="1" vertex="1">
          <mxGeometry x="490" y="395" width="80" height="30" as="geometry" />
        </mxCell>
        <mxCell id="4fM5cwg48w1vnp1xPwAT-16" value="ORACLE ICON" style="rounded=0;whiteSpace=wrap;html=1;" parent="1" vertex="1">
          <mxGeometry x="646" y="395" width="80" height="30" as="geometry" />
        </mxCell>
        <mxCell id="4fM5cwg48w1vnp1xPwAT-17" value="âš¡ Develop highly interactive front-end/user interfaces for your web applications and systems" style="text;html=1;strokeColor=none;fillColor=none;align=center;verticalAlign=middle;whiteSpace=wrap;rounded=0;" parent="1" vertex="1">
          <mxGeometry x="422" y="440" width="358" height="30" as="geometry" />
        </mxCell>
        <mxCell id="4fM5cwg48w1vnp1xPwAT-18" value="" style="rounded=0;whiteSpace=wrap;html=1;fillColor=#000045;" parent="1" vertex="1">
          <mxGeometry x="840" y="200" width="640" height="330" as="geometry" />
        </mxCell>
        <mxCell id="4fM5cwg48w1vnp1xPwAT-25" value="" style="rounded=0;whiteSpace=wrap;html=1;" parent="1" vertex="1">
          <mxGeometry x="850" y="270" width="120" height="90" as="geometry" />
        </mxCell>
        <mxCell id="4fM5cwg48w1vnp1xPwAT-26" value="PHOTO" style="text;html=1;strokeColor=none;fillColor=none;align=center;verticalAlign=middle;whiteSpace=wrap;rounded=0;" parent="1" vertex="1">
          <mxGeometry x="880" y="285" width="60" height="60" as="geometry" />
        </mxCell>
        <mxCell id="4fM5cwg48w1vnp1xPwAT-27" value="&lt;font style=&quot;font-size: 14px;&quot; face=&quot;Verdana&quot;&gt;What I Do?&lt;/font&gt;" style="text;html=1;strokeColor=none;fillColor=none;align=center;verticalAlign=middle;whiteSpace=wrap;rounded=0;fontColor=#FFFFFF;" parent="1" vertex="1">
          <mxGeometry x="1102" y="280" width="94" height="30" as="geometry" />
        </mxCell>
        <mxCell id="4fM5cwg48w1vnp1xPwAT-28" value="&lt;font face=&quot;Tahoma&quot;&gt;CRAZY FROUNT END DEVELOPER WHO WANTS TO EXPLORE EVERY TECH STACK&lt;/font&gt;" style="text;html=1;strokeColor=none;fillColor=none;align=center;verticalAlign=middle;whiteSpace=wrap;rounded=0;fontColor=#FFFFFF;" parent="1" vertex="1">
          <mxGeometry x="1096" y="310" width="364" height="30" as="geometry" />
        </mxCell>
        <mxCell id="4fM5cwg48w1vnp1xPwAT-29" value="HTML ICON" style="rounded=0;whiteSpace=wrap;html=1;" parent="1" vertex="1">
          <mxGeometry x="1109" y="350" width="80" height="30" as="geometry" />
        </mxCell>
        <mxCell id="4fM5cwg48w1vnp1xPwAT-30" value="CSS ICON" style="rounded=0;whiteSpace=wrap;html=1;" parent="1" vertex="1">
          <mxGeometry x="1196" y="350" width="80" height="30" as="geometry" />
        </mxCell>
        <mxCell id="4fM5cwg48w1vnp1xPwAT-31" value="JS ICON" style="rounded=0;whiteSpace=wrap;html=1;" parent="1" vertex="1">
          <mxGeometry x="1290" y="350" width="80" height="30" as="geometry" />
        </mxCell>
        <mxCell id="4fM5cwg48w1vnp1xPwAT-32" value="JAVA ICON" style="rounded=0;whiteSpace=wrap;html=1;" parent="1" vertex="1">
          <mxGeometry x="1380" y="350" width="80" height="30" as="geometry" />
        </mxCell>
        <mxCell id="4fM5cwg48w1vnp1xPwAT-33" value="SQL ICON" style="rounded=0;whiteSpace=wrap;html=1;" parent="1" vertex="1">
          <mxGeometry x="1170" y="395" width="80" height="30" as="geometry" />
        </mxCell>
        <mxCell id="4fM5cwg48w1vnp1xPwAT-34" value="ORACLE ICON" style="rounded=0;whiteSpace=wrap;html=1;" parent="1" vertex="1">
          <mxGeometry x="1326" y="395" width="80" height="30" as="geometry" />
        </mxCell>
        <mxCell id="4fM5cwg48w1vnp1xPwAT-35" value="âš¡ Develop highly interactive front-end/user interfaces for your web applications and systems" style="text;html=1;strokeColor=none;fillColor=none;align=center;verticalAlign=middle;whiteSpace=wrap;rounded=0;fontColor=#FFFFFF;" parent="1" vertex="1">
          <mxGeometry x="1102" y="440" width="358" height="30" as="geometry" />
        </mxCell>
        <mxCell id="4fM5cwg48w1vnp1xPwAT-19" value="LOGO" style="text;html=1;strokeColor=none;fillColor=none;align=center;verticalAlign=middle;whiteSpace=wrap;rounded=0;fontColor=#FFFFFF;" parent="1" vertex="1">
          <mxGeometry x="850" y="203" width="40" height="20" as="geometry" />
        </mxCell>
        <mxCell id="4fM5cwg48w1vnp1xPwAT-20" value="Skills" style="text;html=1;strokeColor=none;fillColor=none;align=center;verticalAlign=middle;whiteSpace=wrap;rounded=0;fontColor=#FFFFFF;" parent="1" vertex="1">
          <mxGeometry x="1156" y="203" width="60" height="30" as="geometry" />
        </mxCell>
        <mxCell id="4fM5cwg48w1vnp1xPwAT-21" value="Expiriens" style="text;html=1;strokeColor=none;fillColor=none;align=center;verticalAlign=middle;whiteSpace=wrap;rounded=0;fontColor=#FFFFFF;" parent="1" vertex="1">
          <mxGeometry x="1216" y="203" width="60" height="30" as="geometry" />
        </mxCell>
        <mxCell id="4fM5cwg48w1vnp1xPwAT-22" value="Achivment" style="text;html=1;strokeColor=none;fillColor=none;align=center;verticalAlign=middle;whiteSpace=wrap;rounded=0;fontColor=#FFFFFF;" parent="1" vertex="1">
          <mxGeometry x="1276" y="203" width="60" height="30" as="geometry" />
        </mxCell>
        <mxCell id="4fM5cwg48w1vnp1xPwAT-23" value="Contuct me" style="text;html=1;strokeColor=none;fillColor=none;align=center;verticalAlign=middle;whiteSpace=wrap;rounded=0;fontColor=#FFFFFF;" parent="1" vertex="1">
          <mxGeometry x="1336" y="203" width="70" height="30" as="geometry" />
        </mxCell>
        <mxCell id="4fM5cwg48w1vnp1xPwAT-24" value="Education" style="text;html=1;strokeColor=none;fillColor=none;align=center;verticalAlign=middle;whiteSpace=wrap;rounded=0;fontColor=#FFFFFF;" parent="1" vertex="1">
          <mxGeometry x="1406" y="203" width="70" height="30" as="geometry" />
        </mxCell>
      </root>
    </mxGraphModel>
  </diagram>
  <diagram id="-4TqKNx5xogGepWNoeBK" name="Proficiency">
    <mxGraphModel dx="1050" dy="669" grid="1" gridSize="10" guides="1" tooltips="1" connect="1" arrows="1" fold="1" page="1" pageScale="1" pageWidth="1100" pageHeight="850" math="0" shadow="0">
      <root>
        <mxCell id="0" />
        <mxCell id="1" parent="0" />
        <mxCell id="AXDiUgpfW4jHr-G3uT9h-1" value="" style="rounded=0;whiteSpace=wrap;html=1;" parent="1" vertex="1">
          <mxGeometry x="160" y="200" width="640" height="330" as="geometry" />
        </mxCell>
        <mxCell id="AXDiUgpfW4jHr-G3uT9h-2" value="LOGO" style="text;html=1;strokeColor=none;fillColor=none;align=center;verticalAlign=middle;whiteSpace=wrap;rounded=0;" parent="1" vertex="1">
          <mxGeometry x="170" y="203" width="40" height="20" as="geometry" />
        </mxCell>
        <mxCell id="AXDiUgpfW4jHr-G3uT9h-3" value="Skills" style="text;html=1;strokeColor=none;fillColor=none;align=center;verticalAlign=middle;whiteSpace=wrap;rounded=0;" parent="1" vertex="1">
          <mxGeometry x="476" y="203" width="60" height="30" as="geometry" />
        </mxCell>
        <mxCell id="AXDiUgpfW4jHr-G3uT9h-4" value="Expiriens" style="text;html=1;strokeColor=none;fillColor=none;align=center;verticalAlign=middle;whiteSpace=wrap;rounded=0;" parent="1" vertex="1">
          <mxGeometry x="536" y="203" width="60" height="30" as="geometry" />
        </mxCell>
        <mxCell id="AXDiUgpfW4jHr-G3uT9h-5" value="Achivment" style="text;html=1;strokeColor=none;fillColor=none;align=center;verticalAlign=middle;whiteSpace=wrap;rounded=0;" parent="1" vertex="1">
          <mxGeometry x="596" y="203" width="60" height="30" as="geometry" />
        </mxCell>
        <mxCell id="AXDiUgpfW4jHr-G3uT9h-6" value="Contuct me" style="text;html=1;strokeColor=none;fillColor=none;align=center;verticalAlign=middle;whiteSpace=wrap;rounded=0;" parent="1" vertex="1">
          <mxGeometry x="656" y="203" width="70" height="30" as="geometry" />
        </mxCell>
        <mxCell id="AXDiUgpfW4jHr-G3uT9h-7" value="Education" style="text;html=1;strokeColor=none;fillColor=none;align=center;verticalAlign=middle;whiteSpace=wrap;rounded=0;" parent="1" vertex="1">
          <mxGeometry x="726" y="203" width="70" height="30" as="geometry" />
        </mxCell>
        <mxCell id="AXDiUgpfW4jHr-G3uT9h-8" value="" style="rounded=0;whiteSpace=wrap;html=1;" parent="1" vertex="1">
          <mxGeometry x="631" y="290" width="120" height="90" as="geometry" />
        </mxCell>
        <mxCell id="AXDiUgpfW4jHr-G3uT9h-9" value="PHOTO" style="text;html=1;strokeColor=none;fillColor=none;align=center;verticalAlign=middle;whiteSpace=wrap;rounded=0;" parent="1" vertex="1">
          <mxGeometry x="661" y="305" width="60" height="60" as="geometry" />
        </mxCell>
        <mxCell id="AXDiUgpfW4jHr-G3uT9h-22" value="" style="rounded=1;whiteSpace=wrap;html=1;strokeColor=#000000;align=center;verticalAlign=middle;fontFamily=Helvetica;fontSize=12;fontColor=default;fillColor=#FFFFFF;" parent="1" vertex="1">
          <mxGeometry x="190" y="290" width="270" height="20" as="geometry" />
        </mxCell>
        <mxCell id="AXDiUgpfW4jHr-G3uT9h-24" value="" style="rounded=1;whiteSpace=wrap;html=1;strokeColor=#000000;align=center;verticalAlign=middle;fontFamily=Helvetica;fontSize=12;fontColor=default;fillColor=#688781;" parent="1" vertex="1">
          <mxGeometry x="190" y="290" width="270" height="20" as="geometry" />
        </mxCell>
        <mxCell id="AXDiUgpfW4jHr-G3uT9h-25" value="" style="rounded=1;whiteSpace=wrap;html=1;strokeColor=#000000;align=center;verticalAlign=middle;fontFamily=Helvetica;fontSize=12;fontColor=default;fillColor=#FFFFFF;" parent="1" vertex="1">
          <mxGeometry x="190" y="345" width="270" height="20" as="geometry" />
        </mxCell>
        <mxCell id="AXDiUgpfW4jHr-G3uT9h-26" value="" style="rounded=1;whiteSpace=wrap;html=1;strokeColor=#000000;align=center;verticalAlign=middle;fontFamily=Helvetica;fontSize=12;fontColor=default;fillColor=#688781;" parent="1" vertex="1">
          <mxGeometry x="190" y="345" width="230" height="20" as="geometry" />
        </mxCell>
        <mxCell id="AXDiUgpfW4jHr-G3uT9h-27" value="HTML" style="text;html=1;strokeColor=none;fillColor=none;align=center;verticalAlign=middle;whiteSpace=wrap;rounded=0;fontSize=12;fontFamily=Helvetica;fontColor=default;" parent="1" vertex="1">
          <mxGeometry x="190" y="260" width="60" height="30" as="geometry" />
        </mxCell>
        <mxCell id="AXDiUgpfW4jHr-G3uT9h-28" value="CSS" style="text;html=1;strokeColor=none;fillColor=none;align=center;verticalAlign=middle;whiteSpace=wrap;rounded=0;fontSize=12;fontFamily=Helvetica;fontColor=default;" parent="1" vertex="1">
          <mxGeometry x="190" y="315" width="60" height="30" as="geometry" />
        </mxCell>
        <mxCell id="AXDiUgpfW4jHr-G3uT9h-29" value="JAVA SCRIPT" style="text;html=1;strokeColor=none;fillColor=none;align=center;verticalAlign=middle;whiteSpace=wrap;rounded=0;fontSize=12;fontFamily=Helvetica;fontColor=default;" parent="1" vertex="1">
          <mxGeometry x="190" y="375" width="90" height="30" as="geometry" />
        </mxCell>
        <mxCell id="AXDiUgpfW4jHr-G3uT9h-30" value="" style="rounded=1;whiteSpace=wrap;html=1;strokeColor=#000000;align=center;verticalAlign=middle;fontFamily=Helvetica;fontSize=12;fontColor=default;fillColor=#FFFFFF;" parent="1" vertex="1">
          <mxGeometry x="190" y="405" width="270" height="20" as="geometry" />
        </mxCell>
        <mxCell id="AXDiUgpfW4jHr-G3uT9h-31" value="" style="rounded=1;whiteSpace=wrap;html=1;strokeColor=#000000;align=center;verticalAlign=middle;fontFamily=Helvetica;fontSize=12;fontColor=default;fillColor=#688781;" parent="1" vertex="1">
          <mxGeometry x="190" y="405" width="150" height="20" as="geometry" />
        </mxCell>
        <mxCell id="AXDiUgpfW4jHr-G3uT9h-32" value="JAVA" style="text;html=1;strokeColor=none;fillColor=none;align=center;verticalAlign=middle;whiteSpace=wrap;rounded=0;fontSize=12;fontFamily=Helvetica;fontColor=default;" parent="1" vertex="1">
          <mxGeometry x="190" y="440" width="90" height="30" as="geometry" />
        </mxCell>
        <mxCell id="AXDiUgpfW4jHr-G3uT9h-33" value="" style="rounded=1;whiteSpace=wrap;html=1;strokeColor=#000000;align=center;verticalAlign=middle;fontFamily=Helvetica;fontSize=12;fontColor=default;fillColor=#688781;" parent="1" vertex="1">
          <mxGeometry x="190" y="470" width="150" height="20" as="geometry" />
        </mxCell>
        <mxCell id="AXDiUgpfW4jHr-G3uT9h-34" value="" style="rounded=1;whiteSpace=wrap;html=1;strokeColor=#000000;align=center;verticalAlign=middle;fontFamily=Helvetica;fontSize=12;fontColor=default;fillColor=#FFFFFF;" parent="1" vertex="1">
          <mxGeometry x="190" y="470" width="270" height="20" as="geometry" />
        </mxCell>
        <mxCell id="AXDiUgpfW4jHr-G3uT9h-35" value="" style="rounded=1;whiteSpace=wrap;html=1;strokeColor=#000000;align=center;verticalAlign=middle;fontFamily=Helvetica;fontSize=12;fontColor=default;fillColor=#688781;" parent="1" vertex="1">
          <mxGeometry x="190" y="470" width="110" height="20" as="geometry" />
        </mxCell>
        <mxCell id="AXDiUgpfW4jHr-G3uT9h-36" value="100%" style="text;html=1;strokeColor=none;fillColor=none;align=center;verticalAlign=middle;whiteSpace=wrap;rounded=0;fontSize=12;fontFamily=Helvetica;fontColor=default;" parent="1" vertex="1">
          <mxGeometry x="476" y="285" width="60" height="30" as="geometry" />
        </mxCell>
        <mxCell id="AXDiUgpfW4jHr-G3uT9h-37" value="75%" style="text;html=1;strokeColor=none;fillColor=none;align=center;verticalAlign=middle;whiteSpace=wrap;rounded=0;fontSize=12;fontFamily=Helvetica;fontColor=default;" parent="1" vertex="1">
          <mxGeometry x="476" y="340" width="60" height="30" as="geometry" />
        </mxCell>
        <mxCell id="AXDiUgpfW4jHr-G3uT9h-38" value="55%" style="text;html=1;strokeColor=none;fillColor=none;align=center;verticalAlign=middle;whiteSpace=wrap;rounded=0;fontSize=12;fontFamily=Helvetica;fontColor=default;" parent="1" vertex="1">
          <mxGeometry x="476" y="400" width="60" height="30" as="geometry" />
        </mxCell>
        <mxCell id="AXDiUgpfW4jHr-G3uT9h-39" value="40%" style="text;html=1;strokeColor=none;fillColor=none;align=center;verticalAlign=middle;whiteSpace=wrap;rounded=0;fontSize=12;fontFamily=Helvetica;fontColor=default;" parent="1" vertex="1">
          <mxGeometry x="476" y="465" width="60" height="30" as="geometry" />
        </mxCell>
        <mxCell id="AXDiUgpfW4jHr-G3uT9h-40" value="" style="rounded=0;whiteSpace=wrap;html=1;fillColor=#000045;" parent="1" vertex="1">
          <mxGeometry x="890" y="203" width="640" height="330" as="geometry" />
        </mxCell>
        <mxCell id="AXDiUgpfW4jHr-G3uT9h-41" value="LOGO" style="text;html=1;strokeColor=none;fillColor=none;align=center;verticalAlign=middle;whiteSpace=wrap;rounded=0;fontColor=#FFFFFF;" parent="1" vertex="1">
          <mxGeometry x="900" y="206" width="40" height="20" as="geometry" />
        </mxCell>
        <mxCell id="AXDiUgpfW4jHr-G3uT9h-42" value="Skills" style="text;html=1;strokeColor=none;fillColor=none;align=center;verticalAlign=middle;whiteSpace=wrap;rounded=0;fontColor=#FFFFFF;" parent="1" vertex="1">
          <mxGeometry x="1206" y="206" width="60" height="30" as="geometry" />
        </mxCell>
        <mxCell id="AXDiUgpfW4jHr-G3uT9h-43" value="Expiriens" style="text;html=1;strokeColor=none;fillColor=none;align=center;verticalAlign=middle;whiteSpace=wrap;rounded=0;fontColor=#FFFFFF;" parent="1" vertex="1">
          <mxGeometry x="1266" y="206" width="60" height="30" as="geometry" />
        </mxCell>
        <mxCell id="AXDiUgpfW4jHr-G3uT9h-44" value="Achivment" style="text;html=1;strokeColor=none;fillColor=none;align=center;verticalAlign=middle;whiteSpace=wrap;rounded=0;fontColor=#FFFFFF;" parent="1" vertex="1">
          <mxGeometry x="1326" y="206" width="60" height="30" as="geometry" />
        </mxCell>
        <mxCell id="AXDiUgpfW4jHr-G3uT9h-45" value="Contuct me" style="text;html=1;strokeColor=none;fillColor=none;align=center;verticalAlign=middle;whiteSpace=wrap;rounded=0;fontColor=#FFFFFF;" parent="1" vertex="1">
          <mxGeometry x="1386" y="206" width="70" height="30" as="geometry" />
        </mxCell>
        <mxCell id="AXDiUgpfW4jHr-G3uT9h-46" value="Education" style="text;html=1;strokeColor=none;fillColor=none;align=center;verticalAlign=middle;whiteSpace=wrap;rounded=0;fontColor=#FFFFFF;" parent="1" vertex="1">
          <mxGeometry x="1456" y="206" width="70" height="30" as="geometry" />
        </mxCell>
        <mxCell id="AXDiUgpfW4jHr-G3uT9h-47" value="" style="rounded=0;whiteSpace=wrap;html=1;" parent="1" vertex="1">
          <mxGeometry x="1361" y="293" width="120" height="90" as="geometry" />
        </mxCell>
        <mxCell id="AXDiUgpfW4jHr-G3uT9h-48" value="PHOTO" style="text;html=1;strokeColor=none;fillColor=none;align=center;verticalAlign=middle;whiteSpace=wrap;rounded=0;" parent="1" vertex="1">
          <mxGeometry x="1391" y="308" width="60" height="60" as="geometry" />
        </mxCell>
        <mxCell id="AXDiUgpfW4jHr-G3uT9h-49" value="" style="rounded=1;whiteSpace=wrap;html=1;strokeColor=#000000;align=center;verticalAlign=middle;fontFamily=Helvetica;fontSize=12;fontColor=default;fillColor=#FFFFFF;" parent="1" vertex="1">
          <mxGeometry x="920" y="293" width="270" height="20" as="geometry" />
        </mxCell>
        <mxCell id="AXDiUgpfW4jHr-G3uT9h-50" value="" style="rounded=1;whiteSpace=wrap;html=1;strokeColor=#000000;align=center;verticalAlign=middle;fontFamily=Helvetica;fontSize=12;fontColor=default;fillColor=#688781;" parent="1" vertex="1">
          <mxGeometry x="920" y="293" width="270" height="20" as="geometry" />
        </mxCell>
        <mxCell id="AXDiUgpfW4jHr-G3uT9h-51" value="" style="rounded=1;whiteSpace=wrap;html=1;strokeColor=#000000;align=center;verticalAlign=middle;fontFamily=Helvetica;fontSize=12;fontColor=default;fillColor=#FFFFFF;" parent="1" vertex="1">
          <mxGeometry x="920" y="348" width="270" height="20" as="geometry" />
        </mxCell>
        <mxCell id="AXDiUgpfW4jHr-G3uT9h-52" value="" style="rounded=1;whiteSpace=wrap;html=1;strokeColor=#000000;align=center;verticalAlign=middle;fontFamily=Helvetica;fontSize=12;fontColor=default;fillColor=#688781;" parent="1" vertex="1">
          <mxGeometry x="920" y="348" width="230" height="20" as="geometry" />
        </mxCell>
        <mxCell id="AXDiUgpfW4jHr-G3uT9h-53" value="HTML" style="text;html=1;strokeColor=none;fillColor=none;align=center;verticalAlign=middle;whiteSpace=wrap;rounded=0;fontSize=12;fontFamily=Helvetica;fontColor=#FFFFFF;" parent="1" vertex="1">
          <mxGeometry x="920" y="263" width="60" height="30" as="geometry" />
        </mxCell>
        <mxCell id="AXDiUgpfW4jHr-G3uT9h-54" value="CSS" style="text;html=1;strokeColor=none;fillColor=none;align=center;verticalAlign=middle;whiteSpace=wrap;rounded=0;fontSize=12;fontFamily=Helvetica;fontColor=#FFFFFF;" parent="1" vertex="1">
          <mxGeometry x="920" y="318" width="60" height="30" as="geometry" />
        </mxCell>
        <mxCell id="AXDiUgpfW4jHr-G3uT9h-55" value="JAVA SCRIPT" style="text;html=1;strokeColor=none;fillColor=none;align=center;verticalAlign=middle;whiteSpace=wrap;rounded=0;fontSize=12;fontFamily=Helvetica;fontColor=#FFFFFF;" parent="1" vertex="1">
          <mxGeometry x="920" y="378" width="90" height="30" as="geometry" />
        </mxCell>
        <mxCell id="AXDiUgpfW4jHr-G3uT9h-56" value="" style="rounded=1;whiteSpace=wrap;html=1;strokeColor=#000000;align=center;verticalAlign=middle;fontFamily=Helvetica;fontSize=12;fontColor=default;fillColor=#FFFFFF;" parent="1" vertex="1">
          <mxGeometry x="920" y="408" width="270" height="20" as="geometry" />
        </mxCell>
        <mxCell id="AXDiUgpfW4jHr-G3uT9h-57" value="" style="rounded=1;whiteSpace=wrap;html=1;strokeColor=#000000;align=center;verticalAlign=middle;fontFamily=Helvetica;fontSize=12;fontColor=default;fillColor=#688781;" parent="1" vertex="1">
          <mxGeometry x="920" y="408" width="150" height="20" as="geometry" />
        </mxCell>
        <mxCell id="AXDiUgpfW4jHr-G3uT9h-58" value="JAVA" style="text;html=1;strokeColor=none;fillColor=none;align=center;verticalAlign=middle;whiteSpace=wrap;rounded=0;fontSize=12;fontFamily=Helvetica;fontColor=#FFFFFF;" parent="1" vertex="1">
          <mxGeometry x="920" y="443" width="90" height="30" as="geometry" />
        </mxCell>
        <mxCell id="AXDiUgpfW4jHr-G3uT9h-59" value="" style="rounded=1;whiteSpace=wrap;html=1;strokeColor=#000000;align=center;verticalAlign=middle;fontFamily=Helvetica;fontSize=12;fontColor=default;fillColor=#688781;" parent="1" vertex="1">
          <mxGeometry x="920" y="473" width="150" height="20" as="geometry" />
        </mxCell>
        <mxCell id="AXDiUgpfW4jHr-G3uT9h-60" value="" style="rounded=1;whiteSpace=wrap;html=1;strokeColor=#000000;align=center;verticalAlign=middle;fontFamily=Helvetica;fontSize=12;fontColor=default;fillColor=#FFFFFF;" parent="1" vertex="1">
          <mxGeometry x="920" y="473" width="270" height="20" as="geometry" />
        </mxCell>
        <mxCell id="AXDiUgpfW4jHr-G3uT9h-61" value="" style="rounded=1;whiteSpace=wrap;html=1;strokeColor=#000000;align=center;verticalAlign=middle;fontFamily=Helvetica;fontSize=12;fontColor=default;fillColor=#688781;" parent="1" vertex="1">
          <mxGeometry x="920" y="473" width="110" height="20" as="geometry" />
        </mxCell>
        <mxCell id="AXDiUgpfW4jHr-G3uT9h-62" value="100%" style="text;html=1;strokeColor=none;fillColor=none;align=center;verticalAlign=middle;whiteSpace=wrap;rounded=0;fontSize=12;fontFamily=Helvetica;fontColor=#FFFFFF;" parent="1" vertex="1">
          <mxGeometry x="1206" y="288" width="60" height="30" as="geometry" />
        </mxCell>
        <mxCell id="AXDiUgpfW4jHr-G3uT9h-63" value="75%" style="text;html=1;strokeColor=none;fillColor=none;align=center;verticalAlign=middle;whiteSpace=wrap;rounded=0;fontSize=12;fontFamily=Helvetica;fontColor=#FFFFFF;" parent="1" vertex="1">
          <mxGeometry x="1206" y="343" width="60" height="30" as="geometry" />
        </mxCell>
        <mxCell id="AXDiUgpfW4jHr-G3uT9h-64" value="55%" style="text;html=1;strokeColor=none;fillColor=none;align=center;verticalAlign=middle;whiteSpace=wrap;rounded=0;fontSize=12;fontFamily=Helvetica;fontColor=#FFFFFF;" parent="1" vertex="1">
          <mxGeometry x="1206" y="403" width="60" height="30" as="geometry" />
        </mxCell>
        <mxCell id="AXDiUgpfW4jHr-G3uT9h-65" value="40%" style="text;html=1;strokeColor=none;fillColor=none;align=center;verticalAlign=middle;whiteSpace=wrap;rounded=0;fontSize=12;fontFamily=Helvetica;fontColor=#FFFFFF;" parent="1" vertex="1">
          <mxGeometry x="1206" y="468" width="60" height="30" as="geometry" />
        </mxCell>
      </root>
    </mxGraphModel>
  </diagram>
  <diagram id="vASs_iWUAgG041xbnADQ" name="EDUCATION">
    <mxGraphModel dx="1050" dy="669" grid="1" gridSize="10" guides="1" tooltips="1" connect="1" arrows="1" fold="1" page="1" pageScale="1" pageWidth="1100" pageHeight="850" math="0" shadow="0">
      <root>
        <mxCell id="0" />
        <mxCell id="1" parent="0" />
        <mxCell id="dVWlT_mY-vUJTCWOLY5a-1" value="" style="rounded=0;whiteSpace=wrap;html=1;" vertex="1" parent="1">
          <mxGeometry x="160" y="200" width="640" height="330" as="geometry" />
        </mxCell>
        <mxCell id="dVWlT_mY-vUJTCWOLY5a-2" value="LOGO" style="text;html=1;strokeColor=none;fillColor=none;align=center;verticalAlign=middle;whiteSpace=wrap;rounded=0;" vertex="1" parent="1">
          <mxGeometry x="170" y="203" width="40" height="20" as="geometry" />
        </mxCell>
        <mxCell id="dVWlT_mY-vUJTCWOLY5a-3" value="Skills" style="text;html=1;strokeColor=none;fillColor=none;align=center;verticalAlign=middle;whiteSpace=wrap;rounded=0;" vertex="1" parent="1">
          <mxGeometry x="476" y="203" width="60" height="30" as="geometry" />
        </mxCell>
        <mxCell id="dVWlT_mY-vUJTCWOLY5a-4" value="Expiriens" style="text;html=1;strokeColor=none;fillColor=none;align=center;verticalAlign=middle;whiteSpace=wrap;rounded=0;" vertex="1" parent="1">
          <mxGeometry x="536" y="203" width="60" height="30" as="geometry" />
        </mxCell>
        <mxCell id="dVWlT_mY-vUJTCWOLY5a-5" value="Achivment" style="text;html=1;strokeColor=none;fillColor=none;align=center;verticalAlign=middle;whiteSpace=wrap;rounded=0;" vertex="1" parent="1">
          <mxGeometry x="596" y="203" width="60" height="30" as="geometry" />
        </mxCell>
        <mxCell id="dVWlT_mY-vUJTCWOLY5a-6" value="Contuct me" style="text;html=1;strokeColor=none;fillColor=none;align=center;verticalAlign=middle;whiteSpace=wrap;rounded=0;" vertex="1" parent="1">
          <mxGeometry x="656" y="203" width="70" height="30" as="geometry" />
        </mxCell>
        <mxCell id="dVWlT_mY-vUJTCWOLY5a-7" value="Education" style="text;html=1;strokeColor=none;fillColor=none;align=center;verticalAlign=middle;whiteSpace=wrap;rounded=0;" vertex="1" parent="1">
          <mxGeometry x="726" y="203" width="70" height="30" as="geometry" />
        </mxCell>
        <mxCell id="dVWlT_mY-vUJTCWOLY5a-8" value="" style="rounded=0;whiteSpace=wrap;html=1;" vertex="1" parent="1">
          <mxGeometry x="180" y="280" width="120" height="90" as="geometry" />
        </mxCell>
        <mxCell id="dVWlT_mY-vUJTCWOLY5a-9" value="PHOTO" style="text;html=1;strokeColor=none;fillColor=none;align=center;verticalAlign=middle;whiteSpace=wrap;rounded=0;" vertex="1" parent="1">
          <mxGeometry x="210" y="295" width="60" height="60" as="geometry" />
        </mxCell>
        <mxCell id="dVWlT_mY-vUJTCWOLY5a-27" value="Elsewedy Technical Academy" style="text;html=1;strokeColor=none;fillColor=none;align=center;verticalAlign=middle;whiteSpace=wrap;rounded=0;fontSize=12;fontFamily=Helvetica;fontColor=default;" vertex="1" parent="1">
          <mxGeometry x="320" y="295" width="170" height="30" as="geometry" />
        </mxCell>
        <mxCell id="dVWlT_mY-vUJTCWOLY5a-28" value="A secondary school that specializes in training and teaching students the cultural curriculum and educational materials, in addition to many practical exercises, the way of teaching them to students varies based on their department and specialization." style="text;html=1;strokeColor=none;fillColor=none;align=center;verticalAlign=middle;whiteSpace=wrap;rounded=0;fontSize=12;fontFamily=Helvetica;fontColor=default;fontStyle=1" vertex="1" parent="1">
          <mxGeometry x="320" y="320" width="380" height="70" as="geometry" />
        </mxCell>
        <mxCell id="dVWlT_mY-vUJTCWOLY5a-29" value="September 2022 - August 2025" style="text;html=1;strokeColor=none;fillColor=none;align=center;verticalAlign=middle;whiteSpace=wrap;rounded=0;fontSize=12;fontFamily=Helvetica;fontColor=default;" vertex="1" parent="1">
          <mxGeometry x="330" y="390" width="220" height="30" as="geometry" />
        </mxCell>
        <mxCell id="dVWlT_mY-vUJTCWOLY5a-30" value="" style="rounded=0;whiteSpace=wrap;html=1;fontColor=#000045;fillColor=#000045;" vertex="1" parent="1">
          <mxGeometry x="880" y="200" width="640" height="330" as="geometry" />
        </mxCell>
        <mxCell id="dVWlT_mY-vUJTCWOLY5a-31" value="LOGO" style="text;html=1;strokeColor=none;fillColor=none;align=center;verticalAlign=middle;whiteSpace=wrap;rounded=0;fontColor=#FFFFFF;" vertex="1" parent="1">
          <mxGeometry x="890" y="203" width="40" height="20" as="geometry" />
        </mxCell>
        <mxCell id="dVWlT_mY-vUJTCWOLY5a-32" value="Skills" style="text;html=1;strokeColor=none;fillColor=none;align=center;verticalAlign=middle;whiteSpace=wrap;rounded=0;fontColor=#FFFFFF;" vertex="1" parent="1">
          <mxGeometry x="1196" y="203" width="60" height="30" as="geometry" />
        </mxCell>
        <mxCell id="dVWlT_mY-vUJTCWOLY5a-33" value="Expiriens" style="text;html=1;strokeColor=none;fillColor=none;align=center;verticalAlign=middle;whiteSpace=wrap;rounded=0;fontColor=#FFFFFF;" vertex="1" parent="1">
          <mxGeometry x="1256" y="203" width="60" height="30" as="geometry" />
        </mxCell>
        <mxCell id="dVWlT_mY-vUJTCWOLY5a-34" value="Achivment" style="text;html=1;strokeColor=none;fillColor=none;align=center;verticalAlign=middle;whiteSpace=wrap;rounded=0;fontColor=#FFFFFF;" vertex="1" parent="1">
          <mxGeometry x="1316" y="203" width="60" height="30" as="geometry" />
        </mxCell>
        <mxCell id="dVWlT_mY-vUJTCWOLY5a-35" value="Contuct me" style="text;html=1;strokeColor=none;fillColor=none;align=center;verticalAlign=middle;whiteSpace=wrap;rounded=0;fontColor=#FFFFFF;" vertex="1" parent="1">
          <mxGeometry x="1376" y="203" width="70" height="30" as="geometry" />
        </mxCell>
        <mxCell id="dVWlT_mY-vUJTCWOLY5a-36" value="Education" style="text;html=1;strokeColor=none;fillColor=none;align=center;verticalAlign=middle;whiteSpace=wrap;rounded=0;fontColor=#FFFFFF;" vertex="1" parent="1">
          <mxGeometry x="1446" y="203" width="70" height="30" as="geometry" />
        </mxCell>
        <mxCell id="dVWlT_mY-vUJTCWOLY5a-37" value="" style="rounded=0;whiteSpace=wrap;html=1;" vertex="1" parent="1">
          <mxGeometry x="900" y="280" width="120" height="90" as="geometry" />
        </mxCell>
        <mxCell id="dVWlT_mY-vUJTCWOLY5a-38" value="PHOTO" style="text;html=1;strokeColor=none;fillColor=none;align=center;verticalAlign=middle;whiteSpace=wrap;rounded=0;" vertex="1" parent="1">
          <mxGeometry x="930" y="295" width="60" height="60" as="geometry" />
        </mxCell>
        <mxCell id="dVWlT_mY-vUJTCWOLY5a-39" value="Elsewedy Technical Academy" style="text;html=1;strokeColor=none;fillColor=none;align=center;verticalAlign=middle;whiteSpace=wrap;rounded=0;fontSize=12;fontFamily=Helvetica;fontColor=#FFFFFF;" vertex="1" parent="1">
          <mxGeometry x="1040" y="295" width="170" height="30" as="geometry" />
        </mxCell>
        <mxCell id="dVWlT_mY-vUJTCWOLY5a-40" value="A secondary school that specializes in training and teaching students the cultural curriculum and educational materials, in addition to many practical exercises, the way of teaching them to students varies based on their department and specialization." style="text;html=1;strokeColor=none;fillColor=none;align=center;verticalAlign=middle;whiteSpace=wrap;rounded=0;fontSize=12;fontFamily=Helvetica;fontColor=#FFFFFF;fontStyle=1" vertex="1" parent="1">
          <mxGeometry x="1040" y="320" width="380" height="70" as="geometry" />
        </mxCell>
        <mxCell id="dVWlT_mY-vUJTCWOLY5a-41" value="September 2022 - August 2025" style="text;html=1;strokeColor=none;fillColor=none;align=center;verticalAlign=middle;whiteSpace=wrap;rounded=0;fontSize=12;fontFamily=Helvetica;fontColor=#FFFFFF;" vertex="1" parent="1">
          <mxGeometry x="1050" y="390" width="220" height="30" as="geometry" />
        </mxCell>
      </root>
    </mxGraphModel>
  </diagram>
</mxfile>
